<?xml version="1.0" encoding="UTF-8"?>
<svg id="_图层_2" data-name="图层 2" xmlns="http://www.w3.org/2000/svg" viewBox="0 0 507.75 122.18">
  <defs>
    <style>
      .cls-1 {
        fill: #fe7e01;
      }

      .cls-1, .cls-2 {
        stroke-width: 0px;
      }

      .cls-2 {
        fill: #1e293b;
      }
    </style>
  </defs>
  <g id="Layer_1" data-name="Layer 1">
    <g>
      <g>
        <path class="cls-2" d="m195.43,41.43c-2.66-3.15-5.88-5.69-9.57-7.57-3.71-1.89-7.9-2.84-12.45-2.84s-8.46.91-12.16,2.7c-3.69,1.78-6.95,4.24-9.7,7.29-2.74,3.04-4.91,6.56-6.45,10.45-1.54,3.89-2.32,8.04-2.32,12.32s.73,8.15,2.18,12.04c1.45,3.89,3.54,7.44,6.22,10.54,2.69,3.12,5.93,5.62,9.62,7.43,3.71,1.82,7.89,2.75,12.43,2.75s8.46-.89,12.16-2.65c3.69-1.75,6.95-4.19,9.71-7.25,2.75-3.05,4.9-6.56,6.41-10.45,1.51-3.9,2.27-8.04,2.27-12.32,0-4.04-.73-8.05-2.18-11.91-1.44-3.85-3.52-7.4-6.17-10.53Zm-1.55,22.35c0,2.89-.47,5.8-1.41,8.64-.93,2.83-2.31,5.41-4.09,7.67-1.77,2.24-3.94,4.07-6.47,5.41-2.5,1.34-5.39,2.01-8.58,2.01s-5.91-.65-8.42-1.93c-2.53-1.29-4.72-3.05-6.51-5.24-1.81-2.2-3.23-4.77-4.22-7.63-.99-2.86-1.5-5.87-1.5-8.93s.49-5.87,1.45-8.67c.96-2.8,2.35-5.37,4.14-7.64,1.77-2.24,3.94-4.05,6.46-5.36,2.51-1.31,5.4-1.97,8.59-1.97,3.02,0,5.81.64,8.29,1.89,2.49,1.26,4.68,3.02,6.51,5.24,1.84,2.24,3.27,4.8,4.26,7.63.99,2.84,1.49,5.83,1.49,8.89Z"/>
        <path class="cls-2" d="m255.03,68c2.06-1.91,3.68-4.25,4.82-6.95,1.13-2.7,1.71-5.59,1.71-8.58,0-2.58-.5-5.15-1.48-7.64-.98-2.48-2.38-4.74-4.15-6.73-1.78-2-3.9-3.61-6.29-4.81-2.42-1.21-5.12-1.82-8.02-1.82h-27.81v64.63h9.82v-22.55h15.18l14.32,22.55h11.22l-15.46-24.44c2.3-.79,4.36-2.01,6.13-3.65Zm-4.66-9.47c-.84,1.85-2.03,3.35-3.51,4.46-1.47,1.1-3.15,1.63-5.15,1.63h-18.08v-24.22h17.55c1.89,0,3.56.52,5.13,1.6,1.58,1.09,2.88,2.57,3.86,4.4.98,1.83,1.48,3.87,1.48,6.06s-.43,4.2-1.29,6.07Z"/>
        <path class="cls-2" d="m296.8,31.46l-26.49,64.63h10.51l7.07-18.39h25.72l7.04,18.39h10.51l-26.4-64.63h-7.97Zm13.73,38.19h-19.55l9.8-25.47,9.75,25.47Z"/>
        <polygon class="cls-2" points="383.09 78.76 346.1 31.46 337.99 31.46 337.99 96.1 347.81 96.1 347.81 49.75 384.27 96.1 392.9 96.1 392.9 31.55 383.09 31.55 383.09 78.76"/>
        <path class="cls-2" d="m452.18,31.46l-26.49,64.63h10.51l7.07-18.39h25.72l7.04,18.39h10.51l-26.4-64.63h-7.97Zm13.73,38.19h-19.55l9.8-25.47,9.75,25.47Z"/>
        <rect class="cls-2" x="497.93" y="31.46" width="9.82" height="64.63"/>
      </g>
      <g>
        <path class="cls-1" d="m66.77,53.85c-1.11,1.8-2.1,3.67-2.96,5.6-4.36,9.74-5.42,20.61-8.23,30.92s-8.76,22.66-18.25,27.22c6.61,2.04,11,3.97,15.27,4.39.48.05,2.03-.89,2.85-1.49s1.59-1.37,2.3-2.1c1.56-1.59,2.86-3.42,3.94-5.37,2.4-4.33,3.74-9.2,4.6-14.06,1.45-8.21,1.81-16.73,4.95-24.44,3.83-9.41,11.59-16.8,20.47-21.46,8.88-4.66,18.85-6.77,28.79-7.7-1.09-4.04-2.56-7.98-4.37-11.74-.54-1.12-1.17-2.29-2.23-2.92-.89-.52-1.96-.59-2.99-.61-9.72-.22-19.53,2.36-27.87,7.5-6.56,4.04-12.19,9.66-16.26,16.27Z"/>
        <path class="cls-1" d="m95.07,81.29c5.64-4.89,12.84-7.76,20.08-9.17,2.23-.45,4.48-.76,6.74-.99.53-4.71.49-9.5-.17-14.27-17.72.17-36.99,6.34-44.84,23.21-3.95,8.95-3.4,19.35-6.97,28.55-1.97,5.26-4.99,9.78-8.85,13.45,4.43.29,8.92.07,13.38-.69,1.37-1.23,2.62-2.59,3.7-4.12,2.81-3.91,4.25-8.56,5.51-13.17,2.17-8.3,4.46-17.02,11.42-22.8Z"/>
        <path class="cls-1" d="m32.41,115.23c7.17-4.77,12.85-11.37,14.95-20.39,3-11.04,2.17-22.83,5.79-33.8,5.93-19.42,22.75-34.36,41.83-39.97,2.78-.8,7.6-1.95,10.49-2.33C87.79-.14,56.35-6.08,31.88,7.07,3.06,22.56-8.46,60.17,6.68,89.38c5.98,11.55,15.1,20.32,25.73,25.85Z"/>
        <path class="cls-1" d="m99.5,90.51c-9.67,6.86-8.48,19.57-16.96,28.37,3.24-.77,6.46-1.89,9.59-3.38,13-6.17,21.99-17.37,25.76-30.17-6.51.16-12.98,1.45-18.39,5.19Z"/>
      </g>
    </g>
  </g>
</svg>